HIERARCHY
ROOT Hips
{
	OFFSET 0.000000 0.000000 0.000000
	CHANNELS 6 Xposition Yposition Zposition Xrotation Yrotation Zrotation
	JOINT LeftUpLeg_virtual
	{
		OFFSET 0.000000 0.000000 0.000000
		CHANNELS 3 Xrotation Yrotation Zrotation
		JOINT LeftUpLeg
		{
			OFFSET 13.026900 -6.336304 -1.092800
			CHANNELS 3 Xrotation Yrotation Zrotation
			JOINT LeftLeg
			{
				OFFSET 0.524474 -46.096886 9.782700
				CHANNELS 3 Xrotation Yrotation Zrotation
				JOINT LeftFoot
				{
					OFFSET -0.524474 -53.427422 -12.948200
					CHANNELS 3 Xrotation Yrotation Zrotation
					JOINT LeftToeBase
					{
						OFFSET 0.192200 -14.009700 16.364100
						CHANNELS 3 Xrotation Yrotation Zrotation
						JOINT LeftToe_End
						{
							OFFSET -1.784700 -0.561700 9.474800
							CHANNELS 3 Xrotation Yrotation Zrotation
							End Site
							{
								OFFSET 0 0 0
							}
						}
					}
				}
			}
		}
	}
	JOINT RightUpLeg_virtual
	{
		OFFSET 0.000000 0.000000 0.000000
		CHANNELS 3 Xrotation Yrotation Zrotation
		JOINT RightUpLeg
		{
			OFFSET -12.883000 -6.336304 -1.092800
			CHANNELS 3 Xrotation Yrotation Zrotation
			JOINT RightLeg
			{
				OFFSET -0.524587 -46.096825 9.782800
				CHANNELS 3 Xrotation Yrotation Zrotation
				JOINT RightFoot
				{
					OFFSET 0.524587 -53.427383 -12.948300
					CHANNELS 3 Xrotation Yrotation Zrotation
					JOINT RightToeBase
					{
						OFFSET -0.192200 -14.009700 16.364100
						CHANNELS 3 Xrotation Yrotation Zrotation
						JOINT RightToe_End
						{
							OFFSET 1.784700 -0.561700 9.474800
							CHANNELS 3 Xrotation Yrotation Zrotation
							End Site
							{
								OFFSET 0 0 0
							}
						}
					}
				}
			}
		}
	}
	JOINT Spine_virtual
	{
		OFFSET 0.000000 0.000000 0.000000
		CHANNELS 3 Xrotation Yrotation Zrotation
		JOINT Spine
		{
			OFFSET 0.072000 7.257294 -0.789700
			CHANNELS 3 Xrotation Yrotation Zrotation
			JOINT Spine1
			{
				OFFSET 0.000000 12.508769 -0.658067
				CHANNELS 3 Xrotation Yrotation Zrotation
				JOINT Spine1_split
				{
					OFFSET 0.000000 12.508769 -0.658067
					CHANNELS 3 Xrotation Yrotation Zrotation
					JOINT Spine2
					{
						OFFSET 0.000000 12.508769 -0.658067
						CHANNELS 3 Xrotation Yrotation Zrotation
						JOINT Neck_virtual
						{
							OFFSET 0.000000 0.000000 0.000000
							CHANNELS 3 Xrotation Yrotation Zrotation
							JOINT Neck
							{
								OFFSET 0.000000 14.033295 7.520400
								CHANNELS 3 Xrotation Yrotation Zrotation
								JOINT Head
								{
									OFFSET 0.000000 8.198502 5.703100
									CHANNELS 3 Xrotation Yrotation Zrotation
									JOINT HeadTop_End
									{
										OFFSET 0.000000 17.760803 13.332701
										CHANNELS 3 Xrotation Yrotation Zrotation
										End Site
										{
											OFFSET 0 0 0
										}
									}
								}
							}
						}
						JOINT LeftShoulder_virtual
						{
							OFFSET 0.000000 0.000000 0.000000
							CHANNELS 3 Xrotation Yrotation Zrotation
							JOINT LeftShoulder
							{
								OFFSET 6.292450 5.785301 -0.669000
								CHANNELS 3 Xrotation Yrotation Zrotation
								JOINT LeftShoulder_split
								{
									OFFSET 6.292450 5.785301 -0.669000
									CHANNELS 3 Xrotation Yrotation Zrotation
									JOINT LeftArm
									{
										OFFSET 13.907140 -6.093903 1.965100
										CHANNELS 3 Xrotation Yrotation Zrotation
										JOINT LeftForeArm
										{
											OFFSET 34.140198 0.000000 0.000000
											CHANNELS 3 Xrotation Yrotation Zrotation
											JOINT LeftHand
											{
												OFFSET 40.960209 0.000000 0.000000
												CHANNELS 3 Xrotation Yrotation Zrotation
												End Site
												{
													OFFSET 0 0 0
												}
											}
										}
									}
								}
							}
						}
						JOINT RightShoulder_virtual
						{
							OFFSET 0.000000 0.000000 0.000000
							CHANNELS 3 Xrotation Yrotation Zrotation
							JOINT RightShoulder
							{
								OFFSET -6.292450 5.785301 -0.669000
								CHANNELS 3 Xrotation Yrotation Zrotation
								JOINT RightShoulder_split
								{
									OFFSET -6.292450 5.785301 -0.669000
									CHANNELS 3 Xrotation Yrotation Zrotation
									JOINT RightArm
									{
										OFFSET -13.907140 -6.093903 1.965100
										CHANNELS 3 Xrotation Yrotation Zrotation
										JOINT RightForeArm
										{
											OFFSET -34.140198 0.000000 0.000000
											CHANNELS 3 Xrotation Yrotation Zrotation
											JOINT RightHand
											{
												OFFSET -40.960209 0.000000 0.000000
												CHANNELS 3 Xrotation Yrotation Zrotation
												End Site
												{
													OFFSET 0 0 0
												}
											}
										}
									}
								}
							}
						}
					}
				}
			}
		}
	}
}
MOTION
Frames: 7
Frame Time: 0.03333333
20.738987 114.648476 11.341042 0.000000 0.000000 0.000000 0.120882 4.237282 -3.992660 0.512580 11.736978 4.571891 18.356589 -6.414614 3.726226 -19.350495 2.403379 -1.740504 1.560433 -2.439630 -1.277936 0.000000 0.000000 0.000000 -0.040337 4.500428 -3.912193 -35.532652 -0.362637 -1.353508 24.277994 -2.864138 -1.148227 5.760706 -0.612523 9.164109 0.451842 1.530021 -11.653559 0.000000 0.000000 0.000000 -0.331648 11.451630 -4.513068 6.357879 -4.755956 2.452841 1.560760 -2.067146 1.825086 0.170349 -0.598398 0.099097 0.000000 0.000000 0.000000 0.765675 -0.557427 2.206565 -8.847316 5.326581 10.552752 1.283034 -7.587317 -1.678543 0.000000 0.000000 0.000000 -0.366503 -1.716955 1.908085 1.789528 0.727516 1.126975 2.628160 -3.529406 -1.948692 -3.152613 -0.140511 -81.733001 14.694300 -31.653207 1.849076 0.000000 0.000000 0.000000 0.369621 -1.879536 1.975334 2.533347 -7.100759 5.010358 -9.438718 0.506580 0.182227 2.477511 11.719543 74.026007 -2.171775 17.119261 6.185893 0.000000 0.000000 0.000000 
21.249798 115.043274 13.929638 0.000000 0.000000 0.000000 0.900484 4.284419 -4.541250 1.632960 12.361648 4.909019 17.059453 -6.486500 3.775502 -19.391802 3.599788 -2.721563 1.299921 -2.688618 -1.653871 0.000000 0.000000 0.000000 1.145516 4.297667 -4.653888 -36.476823 -0.153935 -0.249905 18.899521 -2.155405 -2.115258 4.773632 1.730583 9.604691 2.400931 1.519718 -13.115142 0.000000 0.000000 0.000000 0.286061 11.761120 -5.127733 6.054627 -4.992990 2.133545 1.624514 -2.126484 1.894420 0.207402 -0.627632 0.072739 0.000000 0.000000 0.000000 0.533625 -0.585639 2.278589 -8.872245 5.098930 11.041045 2.439789 -7.605085 -1.245064 0.000000 0.000000 0.000000 -0.475267 -1.759712 1.972811 1.913217 0.498483 1.029540 2.475464 -3.413608 -2.117786 -3.202212 -1.392632 -80.676712 14.253171 -32.787111 0.835587 0.000000 0.000000 0.000000 0.281019 -1.880105 2.026451 2.586117 -6.841265 5.886613 -9.879108 0.542047 0.296728 4.211713 11.006329 73.469538 -2.682610 17.645710 7.162328 0.000000 0.000000 0.000000 
21.572090 115.175575 16.649431 0.000000 0.000000 0.000000 1.584657 4.519699 -5.016152 2.686765 13.241506 5.570089 16.026457 -6.218367 3.565224 -19.383005 4.990875 -3.245248 0.802502 -3.017319 -1.958883 0.000000 0.000000 0.000000 2.142585 4.598783 -5.410824 -37.697115 0.059051 0.463725 14.685103 -1.957855 -2.725299 4.568375 3.102500 9.554698 3.060596 1.505042 -13.980651 0.000000 0.000000 0.000000 0.738632 12.169546 -5.549904 5.978966 -5.491282 1.651398 1.677808 -2.242048 2.035221 0.210630 -0.611764 0.057530 0.000000 0.000000 0.000000 0.359189 -0.650421 2.425505 -8.812956 5.008398 11.573699 3.696790 -7.401959 -1.043523 0.000000 0.000000 0.000000 -0.583242 -1.845216 2.099268 1.974354 0.259335 0.830872 2.370217 -3.307904 -2.152297 -3.359379 -2.628739 -79.816962 14.260399 -33.552935 0.235041 0.000000 0.000000 0.000000 0.166232 -1.927673 2.161454 2.683276 -6.511885 6.748544 -10.261657 0.681670 0.157289 5.826722 10.302697 72.944153 -3.368584 18.608712 8.261633 0.000000 0.000000 0.000000 
21.686375 115.030106 19.519382 0.000000 0.000000 0.000000 2.210920 5.007040 -5.357130 3.850166 14.314834 6.539101 15.129489 -5.975115 3.198971 -19.327316 6.230016 -3.601407 -0.432113 -3.376854 -2.051661 0.000000 0.000000 0.000000 2.915611 5.391196 -5.965199 -39.399215 0.139678 0.536580 12.150202 -2.209487 -2.993149 5.321245 3.610388 9.456513 2.818809 1.499663 -14.135359 0.000000 0.000000 0.000000 1.179774 12.659102 -5.688757 6.080060 -6.184786 1.057074 1.654421 -2.395319 2.192185 0.187424 -0.604829 0.045020 0.000000 0.000000 0.000000 0.233388 -0.741978 2.591168 -8.651831 5.070839 12.094114 4.919147 -6.920525 -1.180802 0.000000 0.000000 0.000000 -0.745542 -1.956614 2.231257 1.969076 0.067210 0.557420 2.244778 -3.184823 -2.070322 -3.697079 -3.778337 -79.196433 14.794919 -33.804901 0.132832 0.000000 0.000000 0.000000 -0.021851 -2.026551 2.328672 2.811223 -6.166516 7.555009 -10.570502 0.802521 -0.069817 7.188756 9.781631 72.420161 -4.178463 19.951913 9.494023 0.000000 0.000000 0.000000 
21.476276 114.549011 22.561769 0.000000 0.000000 0.000000 2.805280 5.713250 -5.457311 5.080118 15.475602 7.741553 14.402069 -6.365521 2.749183 -18.968842 6.975162 -4.712301 -2.626730 -3.736178 -1.862935 0.000000 0.000000 0.000000 3.387955 6.265947 -6.108603 -41.371491 0.030452 0.162928 11.141428 -2.793722 -2.981282 6.229425 3.441901 9.251141 2.140659 1.511481 -13.717085 0.000000 0.000000 0.000000 1.573036 13.199738 -5.455558 6.339382 -6.956913 0.450846 1.498627 -2.551965 2.307535 0.146326 -0.578518 0.038110 0.000000 0.000000 0.000000 0.133585 -0.847963 2.710462 -8.371482 5.281218 12.515359 6.174301 -6.230714 -1.643286 0.000000 0.000000 0.000000 -0.986493 -2.081308 2.296735 1.933554 -0.050982 0.231816 2.159675 -3.080287 -1.882078 -4.199683 -4.809630 -78.810110 15.811987 -33.555435 0.489791 0.000000 0.000000 0.000000 -0.285284 -2.152140 2.476046 2.961868 -5.858153 8.308943 -10.750578 0.835803 -0.275816 8.149304 9.599094 71.812001 -4.981351 21.351416 10.799063 0.000000 0.000000 0.000000 
20.991959 113.749504 25.858067 0.000000 0.000000 0.000000 3.339101 6.469448 -5.288090 6.641499 16.513256 8.761814 13.884653 -7.089440 2.149825 -18.851845 7.222928 -5.934430 -5.363724 -4.117647 -1.452726 0.000000 0.000000 0.000000 3.678806 7.193497 -5.821789 -43.050290 0.010795 -0.403441 11.393848 -3.417620 -2.760777 6.699405 2.946310 8.813197 1.411211 1.555918 -12.923643 0.000000 0.000000 0.000000 1.897562 13.664491 -4.853658 6.666247 -7.668743 -0.071823 1.202081 -2.690246 2.328978 0.127593 -0.587078 0.051699 0.000000 0.000000 0.000000 -0.012410 -0.947917 2.733092 -8.012651 5.605955 12.775398 7.537022 -5.418313 -2.367280 0.000000 0.000000 0.000000 -1.309168 -2.195305 2.257168 1.895742 -0.059785 -0.156193 2.224157 -2.968164 -1.621949 -4.816839 -5.738552 -78.591312 17.129662 -32.938253 1.139617 0.000000 0.000000 0.000000 -0.623329 -2.277216 2.547545 3.129293 -5.623747 9.004367 -10.842650 0.716297 -0.433128 8.607604 9.834952 71.047314 -5.609079 22.326184 12.041165 0.000000 0.000000 0.000000 
20.253262 112.830246 29.349487 0.000000 0.000000 0.000000 3.487052 7.062218 -4.746429 8.207481 17.023446 9.556915 14.287959 -8.374640 1.622655 -18.644688 7.168370 -7.686051 -7.617924 -4.441437 -0.891833 0.000000 0.000000 0.000000 3.851902 8.022128 -5.146559 -44.068367 0.265393 -0.816254 12.614284 -4.031938 -2.403709 6.836154 2.275578 8.058982 1.370401 1.615075 -11.976083 0.000000 0.000000 0.000000 2.162435 13.957607 -4.051596 7.026120 -8.212740 -0.408613 0.772306 -2.792495 2.230094 0.138528 -0.646670 0.080328 0.000000 0.000000 0.000000 -0.273193 -1.029435 2.642978 -7.641308 5.999686 12.808475 9.093058 -4.704954 -3.200131 0.000000 0.000000 0.000000 -1.702089 -2.279538 2.115603 1.887269 0.043950 -0.614718 2.357970 -2.868726 -1.266470 -5.446118 -6.535064 -78.422729 18.471970 -32.185894 1.830837 0.000000 0.000000 0.000000 -1.003412 -2.385641 2.513641 3.324456 -5.464338 9.607326 -10.945564 0.448938 -0.484657 8.608628 10.466140 70.090110 -5.864248 22.538016 13.021529 0.000000 0.000000 0.000000 
